<?xml version="1.0" encoding="utf-8"?>
<!-- Generator: Adobe Illustrator 21.0.0, SVG Export Plug-In . SVG Version: 6.00 Build 0)  -->
<svg version="1.1" id="Layer_1" xmlns="http://www.w3.org/2000/svg" xmlns:xlink="http://www.w3.org/1999/xlink" x="0px" y="0px"
	 viewBox="0 0 104 60" style="enable-background:new 0 0 104 60;" xml:space="preserve">
<style type="text/css">
	.st0{display:none;}
	.st1{display:inline;fill:#FFFFFF;}
	.st2{display:inline;}
</style>
<path class="st0" d="M11-263h-203c-2.8,0-5,2.2-5,5v523.5l-67,51.5c-2.2,1.7-2.6,4.8-0.9,7c1,1.3,2.5,2,4,2c1.1,0,2.1-0.3,3-1
	l67.7-52l68,55.9c0.9,0.8,2.1,1.1,3.2,1.1c1.4,0,2.9-0.6,3.9-1.8c1.8-2.1,1.4-5.3-0.7-7l-71.2-58.5V-253H6v93c0,2.8,2.2,5,5,5
	c2.8,0,5-2.2,5-5v-98C16-260.8,13.8-263,11-263z"/>
<g class="st0">
	<path class="st2" d="M11,142c-2.8,0-5-2.2-5-5V-26c0-2.8,2.2-5,5-5c2.8,0,5,2.2,5,5v163C16,139.8,13.8,142,11,142z"/>
</g>
<g class="st0">
	<path class="st2" d="M11,54c-0.7,0-1.4-0.1-2-0.4l-80-36c-2.5-1.1-3.6-4.1-2.5-6.6s4.1-3.6,6.6-2.5l80,36c2.5,1.1,3.6,4.1,2.5,6.6
		C14.7,52.9,12.9,54,11,54z"/>
</g>
<g class="st0">
	<path class="st2" d="M11,54c-1.9,0-3.8-1.1-4.6-3c-1.1-2.5,0-5.5,2.6-6.6l82-36c2.5-1.1,5.5,0,6.6,2.6c1.1,2.5,0,5.5-2.6,6.6
		l-82,36C12.4,53.9,11.7,54,11,54z"/>
</g>
</svg>
